<svg width="81" height="85" viewBox="0 0 81 85" fill="none" xmlns="http://www.w3.org/2000/svg">
<path id="Union" fill-rule="evenodd" clip-rule="evenodd" d="M26.835 23.7365C26.835 15.4968 33.1472 9.16847 40.5108 9.16847C47.8745 9.16847 54.1867 15.4968 54.1867 23.7365C54.1867 31.8757 48.0275 38.15 40.7798 38.3018C40.6867 38.3011 40.5935 38.3008 40.5002 38.3008C40.4123 38.3008 40.3245 38.3011 40.2367 38.3017C32.9912 38.1469 26.835 31.8738 26.835 23.7365ZM26.1275 41.0795C21.4308 36.8474 18.499 30.5964 18.499 23.7365C18.499 11.281 28.1648 0.83252 40.5108 0.83252C52.8569 0.83252 62.5227 11.281 62.5227 23.7365C62.5227 30.5996 59.5881 36.8532 54.8876 41.0854C69.8955 47.1418 80.4116 62.3908 80.4116 79.9993C80.4116 82.3012 78.5456 84.1673 76.2437 84.1673C73.9417 84.1673 72.0757 82.3012 72.0757 79.9993C72.0757 61.4966 57.9224 46.8179 40.8175 46.6384C40.7154 46.6398 40.6132 46.6405 40.5108 46.6405C40.4055 46.6405 40.3003 46.6398 40.1953 46.6383C23.0848 46.8108 8.92482 61.4921 8.92482 79.9993C8.92482 82.3012 7.05875 84.1673 4.75684 84.1673C2.45493 84.1673 0.588867 82.3012 0.588867 79.9993C0.588867 62.3851 11.1118 47.1319 26.1275 41.0795Z" fill="white"/>
</svg>
