<svg width="241" height="100" viewBox="0 0 241 100" fill="none" xmlns="http://www.w3.org/2000/svg">
<g id="Group">
<path id="Vector" d="M61.9353 49.9585C72.2824 49.9585 80.6704 41.5705 80.6704 31.2234C80.6704 20.8763 72.2824 12.4883 61.9353 12.4883C51.5882 12.4883 43.2002 20.8763 43.2002 31.2234C43.2002 41.5705 51.5882 49.9585 61.9353 49.9585Z" stroke="white" stroke-width="8.33554" stroke-miterlimit="10" stroke-linecap="round"/>
<path id="Vector_2" d="M24.4062 87.4848C24.4062 66.7608 41.211 49.9561 61.935 49.9561C73.3833 49.9561 83.6366 55.0869 90.5223 63.1676" stroke="white" stroke-width="8.33554" stroke-miterlimit="10" stroke-linecap="round"/>
<path id="Vector_3" d="M119.089 49.9605C129.436 49.9605 137.824 41.5725 137.824 31.2254C137.824 20.8782 129.436 12.4902 119.089 12.4902C108.742 12.4902 100.354 20.8782 100.354 31.2254C100.354 41.5725 108.742 49.9605 119.089 49.9605Z" stroke="white" stroke-width="8.33554" stroke-miterlimit="10" stroke-linecap="round"/>
<path id="Vector_4" d="M81.5498 87.4877C81.5498 66.7638 98.3546 49.959 119.079 49.959C139.802 49.959 156.607 66.7638 156.607 87.4877" stroke="white" stroke-width="8.33554" stroke-miterlimit="10" stroke-linecap="round"/>
<path id="Vector_5" d="M176.242 49.9585C186.589 49.9585 194.977 41.5705 194.977 31.2234C194.977 20.8763 186.589 12.4883 176.242 12.4883C165.895 12.4883 157.507 20.8763 157.507 31.2234C157.507 41.5705 165.895 49.9585 176.242 49.9585Z" stroke="white" stroke-width="8.33554" stroke-miterlimit="10" stroke-linecap="round"/>
<path id="Vector_6" d="M213.769 87.4877C213.769 66.7638 196.965 49.959 176.241 49.959C164.792 49.959 154.539 55.0815 147.653 63.1705" stroke="white" stroke-width="8.33554" stroke-miterlimit="10" stroke-linecap="round"/>
</g>
</svg>
